<svg width="512" height="512" fill="none" xmlns="http://www.w3.org/2000/svg"><path fill="#639" d="M0 0h512v512H0z"/><path d="M178.7 198.4c.853 3.413 1.28 7.68 1.28 12.8 0 4.907-.427 9.173-1.28 12.8.853 3.413 1.28 7.68 1.28 12.8 0 4.907-.427 9.173-1.28 12.8.853 3.413 1.28 7.68 1.28 12.8 0 4.907-.427 9.173-1.28 12.8h-9.6c.853 3.413 1.28 7.68 1.28 12.8 0 4.907-.427 9.173-1.28 12.8.853 3.413 1.28 7.68 1.28 12.8 0 4.907-.427 9.173-1.28 12.8h-6.4c.853 3.413 1.28 7.68 1.28 12.8 0 4.907-.427 9.173-1.28 12.8h-19.2c-.853-3.627-1.28-7.893-1.28-12.8 0-5.12.427-9.387 1.28-12.8h-6.4c-.853-3.627-1.28-7.893-1.28-12.8 0-5.12.427-9.387 1.28-12.8h-19.2c.853 3.413 1.28 7.68 1.28 12.8 0 4.907-.427 9.173-1.28 12.8h-6.4c.853 3.413 1.28 7.68 1.28 12.8 0 4.907-.427 9.173-1.28 12.8H92.3c-.853-3.627-1.28-7.893-1.28-12.8 0-5.12.427-9.387 1.28-12.8h-6.4c-.853-3.627-1.28-7.893-1.28-12.8 0-5.12.427-9.387 1.28-12.8-.853-3.627-1.28-7.893-1.28-12.8 0-5.12.427-9.387 1.28-12.8h-9.6c-.853-3.627-1.28-7.893-1.28-12.8 0-5.12.427-9.387 1.28-12.8-.853-3.627-1.28-7.893-1.28-12.8 0-5.12.427-9.387 1.28-12.8-.853-3.627-1.28-7.893-1.28-12.8 0-5.12.427-9.387 1.28-12.8-.853-3.627-1.28-7.893-1.28-12.8 0-5.12.427-9.387 1.28-12.8h25.6c.853 3.413 1.28 7.68 1.28 12.8 0 4.907-.427 9.173-1.28 12.8.853 3.413 1.28 7.68 1.28 12.8 0 4.907-.427 9.173-1.28 12.8.853 3.413 1.28 7.68 1.28 12.8 0 4.907-.427 9.173-1.28 12.8.853 3.413 1.28 7.68 1.28 12.8 0 4.907-.427 9.173-1.28 12.8.853 3.413 1.28 7.68 1.28 12.8 0 4.907-.427 9.173-1.28 12.8h9.6c-.853-3.627-1.28-7.893-1.28-12.8 0-5.12.427-9.387 1.28-12.8h6.4c-.853-3.627-1.28-7.893-1.28-12.8 0-5.12.427-9.387 1.28-12.8-.853-3.627-1.28-7.893-1.28-12.8 0-5.12.427-9.387 1.28-12.8-.853-3.627-1.28-7.893-1.28-12.8 0-5.12.427-9.387 1.28-12.8-.853-3.627-1.28-7.893-1.28-12.8 0-5.12.427-9.387 1.28-12.8h19.2c.853 3.413 1.28 7.68 1.28 12.8 0 4.907-.427 9.173-1.28 12.8.853 3.413 1.28 7.68 1.28 12.8 0 4.907-.427 9.173-1.28 12.8.853 3.413 1.28 7.68 1.28 12.8 0 4.907-.427 9.173-1.28 12.8.853 3.413 1.28 7.68 1.28 12.8 0 4.907-.427 9.173-1.28 12.8h6.4c.853 3.413 1.28 7.68 1.28 12.8 0 4.907-.427 9.173-1.28 12.8h9.6c-.853-3.627-1.28-7.893-1.28-12.8 0-5.12.427-9.387 1.28-12.8-.853-3.627-1.28-7.893-1.28-12.8 0-5.12.427-9.387 1.28-12.8-.853-3.627-1.28-7.893-1.28-12.8 0-5.12.427-9.387 1.28-12.8-.853-3.627-1.28-7.893-1.28-12.8 0-5.12.427-9.387 1.28-12.8-.853-3.627-1.28-7.893-1.28-12.8 0-5.12.427-9.387 1.28-12.8h25.6c.853 3.413 1.28 7.68 1.28 12.8 0 4.907-.427 9.173-1.28 12.8Zm129.405 115.2c0 4.907-.427 9.173-1.28 12.8.853 3.413 1.28 7.68 1.28 12.8 0 4.907-.427 9.173-1.28 12.8h-25.6c-.853-3.627-1.28-7.893-1.28-12.8 0-5.12.427-9.387 1.28-12.8-.853-3.627-1.28-7.893-1.28-12.8 0-5.12.427-9.387 1.28-12.8h-51.2c.853 3.413 1.28 7.68 1.28 12.8 0 4.907-.427 9.173-1.28 12.8.853 3.413 1.28 7.68 1.28 12.8 0 4.907-.427 9.173-1.28 12.8h-25.6c-.853-3.627-1.28-7.893-1.28-12.8 0-5.12.427-9.387 1.28-12.8-.853-3.627-1.28-7.893-1.28-12.8 0-5.12.427-9.387 1.28-12.8h9.6c-.853-3.627-1.28-7.893-1.28-12.8 0-5.12.427-9.387 1.28-12.8-.853-3.627-1.28-7.893-1.28-12.8 0-5.12.427-9.387 1.28-12.8h6.4c-.853-3.627-1.28-7.893-1.28-12.8 0-5.12.427-9.387 1.28-12.8h9.6c-.853-3.627-1.28-7.893-1.28-12.8 0-5.12.427-9.387 1.28-12.8h6.4c-.853-3.627-1.28-7.893-1.28-12.8 0-5.12.427-9.387 1.28-12.8h38.4c.853 3.413 1.28 7.68 1.28 12.8 0 4.907-.427 9.173-1.28 12.8h6.4c.853 3.413 1.28 7.68 1.28 12.8 0 4.907-.427 9.173-1.28 12.8h9.6c.853 3.413 1.28 7.68 1.28 12.8 0 4.907-.427 9.173-1.28 12.8h6.4c.853 3.413 1.28 7.68 1.28 12.8 0 4.907-.427 9.173-1.28 12.8.853 3.413 1.28 7.68 1.28 12.8 0 4.907-.427 9.173-1.28 12.8h9.6c.853 3.413 1.28 7.68 1.28 12.8Zm-36.48-38.4c-.853-3.627-1.28-7.893-1.28-12.8 0-5.12.427-9.387 1.28-12.8h-6.4c-.853-3.627-1.28-7.893-1.28-12.8 0-5.12.427-9.387 1.28-12.8h-19.2c.853 3.413 1.28 7.68 1.28 12.8 0 4.907-.427 9.173-1.28 12.8h-6.4c.853 3.413 1.28 7.68 1.28 12.8 0 4.907-.427 9.173-1.28 12.8h32Zm164.605-89.6c0 4.907-.427 9.173-1.28 12.8h-38.4c.853 3.413 1.28 7.68 1.28 12.8 0 4.907-.427 9.173-1.28 12.8.853 3.413 1.28 7.68 1.28 12.8 0 4.907-.427 9.173-1.28 12.8.853 3.413 1.28 7.68 1.28 12.8 0 4.907-.427 9.173-1.28 12.8.853 3.413 1.28 7.68 1.28 12.8 0 4.907-.427 9.173-1.28 12.8.853 3.413 1.28 7.68 1.28 12.8 0 4.907-.427 9.173-1.28 12.8.853 3.413 1.28 7.68 1.28 12.8 0 4.907-.427 9.173-1.28 12.8h-25.6c-.853-3.627-1.28-7.893-1.28-12.8 0-5.12.427-9.387 1.28-12.8-.853-3.627-1.28-7.893-1.28-12.8 0-5.12.427-9.387 1.28-12.8-.853-3.627-1.28-7.893-1.28-12.8 0-5.12.427-9.387 1.28-12.8-.853-3.627-1.28-7.893-1.28-12.8 0-5.12.427-9.387 1.28-12.8-.853-3.627-1.28-7.893-1.28-12.8 0-5.12.427-9.387 1.28-12.8-.853-3.627-1.28-7.893-1.28-12.8 0-5.12.427-9.387 1.28-12.8h-38.4c-.853-3.627-1.28-7.893-1.28-12.8 0-5.12.427-9.387 1.28-12.8h102.4c.853 3.413 1.28 7.68 1.28 12.8Z" fill="#fff"/></svg>